# cube.obj

v -0.500000 -0.500000 0.500000

v 0.500000 -0.500000 0.500000

v -0.500000 0.500000 0.500000

v 0.500000 0.500000 0.500000

v -0.500000 0.500000 -0.500000

v 0.500000 0.500000 -0.500000

v -0.500000 -0.500000 -0.500000

v 0.500000 -0.500000 -0.500000


v 0.000000 0.000000 -1.500000

v 1.00000  0.000000 -1.500000

v 0.000000 1.000000 -1.500000

v 1.000000 1.000000 -1.500000

v 0.000000 1.000000 -2.500000

v 1.000000 1.000000 -2.500000

v 0.000000 0.000000 -2.500000

v 1.000000 0.000000 -2.500000


vt 0.000000 0.000000

vt 1.000000 0.000000

vt 0.000000 1.000000

vt 1.000000 1.000000


vn 0.000000 0.000000 1.000000

vn 0.000000 1.000000 0.000000

vn 0.000000 0.000000 -1.000000

vn 0.000000 -1.000000 0.000000

vn 1.000000 0.000000 0.000000

vn -1.000000 0.000000 0.000000


f 1/1/1 2/2/1 3/3/1

f 3/3/1 2/2/1 4/4/1

f 3/1/2 4/2/2 5/3/2

f 5/3/2 4/2/2 6/4/2

f 5/4/3 6/3/3 7/2/3

f 7/2/3 6/3/3 8/1/3

f 7/1/4 8/2/4 1/3/4

f 1/3/4 8/2/4 2/4/4

f 2/1/5 8/2/5 4/3/5

f 4/3/5 8/2/5 6/4/5

f 7/1/6 1/2/6 5/3/6

f 5/3/6 1/2/6 3/4/6


f 9/1/1 10/2/1 11/3/1

f 11/3/1 10/2/1 12/4/1

f 11/1/2 12/2/2 13/3/2

f 13/3/2 12/2/2 14/4/2

f 13/4/3 14/3/3 15/2/3

f 15/2/3 14/3/3 16/1/3

f 15/1/4 16/2/4 9/3/4

f 9/3/4 16/2/4 10/4/4

f 10/1/5 16/2/5 12/3/5

f 12/3/5 16/2/5 14/4/5

f 15/1/6 9/2/6 13/3/6

f 13/3/6 9/2/6 11/4/6